# xmcd CD database file
#
# Track frame offsets:
#	150
#	21530
#	43025
#	64412
#
# Disc length: 1142 seconds
#
# Revision: 4
# Processed by: cddbd v1.5.1PL0 Copyright (c) Steve Scherf et al.
# Submitted via: CDex 1.40Beta9
#
DISCID=37047404
DTITLE=岩田さゆり - 空飛ぶあの白い雲のように
DYEAR=2005
DGENRE=J-Pop
TTITLE0=空飛ぶあの白い雲のように
TTITLE1=さよならと・・・
TTITLE2=空飛ぶあの白い雲のように -Instrumental-
TTITLE3=さよならと・・・ -Instrumental-
EXTD=YEAR: 2005/02/23
EXTT0=
EXTT1=
EXTT2=
EXTT3=
PLAYORDER=
